HIERARCHY
ROOT Hips
{
	OFFSET 0.000000 0.000000 0.000000
	CHANNELS 6 Xposition Yposition Zposition Zrotation Yrotation Xrotation 
	JOINT LHipJoint
	{
		OFFSET 0.000000 0.000000 0.000000
		CHANNELS 3 Zrotation Yrotation Xrotation
		JOINT LeftUpLeg
		{
			OFFSET 1.363060 -1.794630 0.839290
			CHANNELS 3 Zrotation Yrotation Xrotation
			JOINT LeftLeg
			{
				OFFSET 2.448110 -6.726130 0.000000
				CHANNELS 3 Zrotation Yrotation Xrotation
				JOINT LeftFoot
				{
					OFFSET 2.562200 -7.039590 0.000000
					CHANNELS 3 Zrotation Yrotation Xrotation
					JOINT LeftToeBase
					{
						OFFSET 0.157640 -0.433110 2.322550
						CHANNELS 3 Zrotation Yrotation Xrotation
						End Site
						{
							OFFSET 0.000000 0.000000 0.000000
						}
					}
				}
			}
		}
	}
	JOINT RHipJoint
	{
		OFFSET 0.000000 0.000000 0.000000
		CHANNELS 3 Zrotation Yrotation Xrotation
		JOINT RightUpLeg
		{
			OFFSET -1.305520 -1.794630 0.839290
			CHANNELS 3 Zrotation Yrotation Xrotation
			JOINT RightLeg
			{
				OFFSET -2.542530 -6.985550 0.000000
				CHANNELS 3 Zrotation Yrotation Xrotation
				JOINT RightFoot
				{
					OFFSET -2.568260 -7.056230 0.000000
					CHANNELS 3 Zrotation Yrotation Xrotation
					JOINT RightToeBase
					{
						OFFSET -0.164730 -0.452590 2.363150
						CHANNELS 3 Zrotation Yrotation Xrotation
						End Site
						{
							OFFSET 0.000000 0.000000 0.000000
						}
					}
				}
			}
		}
	}
	JOINT LowerBack
	{
		OFFSET 0.000000 0.000000 0.000000
		CHANNELS 3 Zrotation Yrotation Xrotation
		JOINT Spine
		{
			OFFSET 0.028270 2.035590 -0.193380
			CHANNELS 3 Zrotation Yrotation Xrotation
			JOINT Spine1
			{
				OFFSET 0.056720 2.048850 -0.042750
				CHANNELS 3 Zrotation Yrotation Xrotation
				JOINT Neck
				{
					OFFSET 0.000000 0.000000 0.000000
					CHANNELS 3 Zrotation Yrotation Xrotation
					JOINT Neck1
					{
						OFFSET -0.054170 1.746240 0.172020
						CHANNELS 3 Zrotation Yrotation Xrotation
						JOINT Head
						{
							OFFSET 0.104070 1.761360 -0.123970
							CHANNELS 3 Zrotation Yrotation Xrotation
							End Site
							{
								OFFSET 0.000000 0.000000 0.000000
							}
						}
					}
				}
				JOINT LeftShoulder
				{
					OFFSET 0.000000 0.000000 0.000000
					CHANNELS 3 Zrotation Yrotation Xrotation
					JOINT LeftArm
					{
						OFFSET 3.362410 1.200890 -0.311210
						CHANNELS 3 Zrotation Yrotation Xrotation
						JOINT LeftForeArm
						{
							OFFSET 4.983000 -0.000000 -0.000000
							CHANNELS 3 Zrotation Yrotation Xrotation
							JOINT LeftHand
							{
								OFFSET 3.483560 -0.000000 -0.000000
								CHANNELS 3 Zrotation Yrotation Xrotation
								JOINT LeftFingerBase
								{
									OFFSET 0.000000 0.000000 0.000000
									CHANNELS 3 Zrotation Yrotation Xrotation
									JOINT LeftHandIndex1
									{
										OFFSET 0.715260 -0.000000 -0.000000
										CHANNELS 3 Zrotation Yrotation Xrotation
										End Site
										{
											OFFSET 0.000000 0.000000 0.000000
										}
									}
								}
								JOINT LThumb
								{
									OFFSET 0.000000 0.000000 0.000000
									CHANNELS 3 Zrotation Yrotation Xrotation
									End Site
									{
										OFFSET 0.000000 0.000000 0.000000
									}
								}
							}
						}
					}
				}
				JOINT RightShoulder
				{
					OFFSET 0.000000 0.000000 0.000000
					CHANNELS 3 Zrotation Yrotation Xrotation
					JOINT RightArm
					{
						OFFSET -3.136600 1.374050 -0.404650
						CHANNELS 3 Zrotation Yrotation Xrotation
						JOINT RightForeArm
						{
							OFFSET -5.241900 -0.000000 -0.000000
							CHANNELS 3 Zrotation Yrotation Xrotation
							JOINT RightHand
							{
								OFFSET -3.444170 -0.000000 -0.000000
								CHANNELS 3 Zrotation Yrotation Xrotation
								JOINT RightFingerBase
								{
									OFFSET 0.000000 0.000000 0.000000
									CHANNELS 3 Zrotation Yrotation Xrotation
									JOINT RightHandIndex1
									{
										OFFSET -0.622530 -0.000000 -0.000000
										CHANNELS 3 Zrotation Yrotation Xrotation
										End Site
										{
											OFFSET 0.000000 0.000000 0.000000
										}
									}
								}
								JOINT RThumb
								{
									OFFSET 0.000000 0.000000 0.000000
									CHANNELS 3 Zrotation Yrotation Xrotation
									End Site
									{
										OFFSET 0.000000 0.000000 0.000000
									}
								}
							}
						}
					}
				}
			}
		}
	}
}
MOTION
Frames: 8
Frame Time: 0.008333
17.151502 16.602102 -11.403318 167.751849 -89.072341 -156.668649 1.636518 -3.920437 -8.001395 -6.825711 -13.271590 -32.130122 -10.316489 20.492055 42.555492 -3.048892 2.012793 5.765348 8.657561 -6.135207 -6.471654 1.281578 9.336268 -11.426911 14.052178 -4.718970 -8.752834 6.032700 -10.612555 16.676410 -2.874331 2.704362 -19.640503 -1.660879 -3.999355 -5.447506 -4.644731 -1.602392 21.908519 4.174324 0.447005 -12.538332 3.131132 0.083301 -7.599434 -3.574377 0.630211 -8.472995 3.003890 0.498023 13.117957 0.121138 0.868241 13.198943 6.315728 -4.258865 1.679300 -85.939928 -10.063894 -17.220955 -12.822481 -4.790112 0.883509 19.037711 -4.212509 -0.397660 0.000000 0.000000 0.000000 0.000000 -0.000000 0.000000 0.000000 0.000000 -0.000000 -6.981935 6.184849 0.749097 79.923587 8.546012 -4.736473 17.176142 22.279572 -0.791057 -21.621820 -4.578703 -0.099960 0.000000 0.000000 0.000003 0.000000 0.000000 -0.000000 0.000000 0.000000 -0.000000 
17.061562 16.590541 -11.432417 165.233445 -89.437489 -154.228375 1.705599 -3.772451 -8.038759 -6.969466 -14.028592 -31.927776 -10.840033 20.144341 40.598754 -2.917504 1.911487 5.737429 9.526992 -6.587444 -7.194115 1.101731 9.365533 -11.480476 14.411933 -5.215150 -8.337922 6.111632 -10.632872 16.543623 -3.248314 2.623169 -19.779650 -1.675237 -4.110684 -5.557432 -4.378698 -1.619779 21.940510 4.066916 0.520292 -12.497418 3.180557 0.171169 -7.241240 -3.753837 0.567531 -8.835142 3.048134 0.471517 13.112724 0.305507 0.630837 13.001602 6.173503 -4.304914 1.656567 -86.026459 -10.143056 -17.401872 -12.824685 -4.762864 0.527762 19.084572 -3.903649 -0.391780 -0.000000 0.000000 0.000000 -0.000000 0.000000 -0.000000 -0.000000 0.000000 -0.000000 -7.232879 5.811763 0.618115 79.886107 8.735126 -4.616921 17.027446 22.526854 -0.228319 -21.745897 -3.809079 -0.135516 0.000000 0.000000 0.000003 0.000000 -0.000000 0.000000 0.000000 0.000000 0.000000 
16.972372 16.581832 -11.463949 163.443234 -89.667942 -152.433298 1.864167 -3.588340 -8.022157 -7.147898 -14.797722 -31.716063 -11.473461 19.593843 38.384272 -2.768811 1.929537 5.566011 9.439140 -5.813673 -7.583875 1.144474 9.475147 -11.534437 14.488594 -5.402336 -7.988713 6.128121 -10.954487 16.495950 -3.465271 2.635399 -19.920138 -1.722634 -3.947288 -5.495988 -4.246201 -1.640361 21.974609 4.042575 0.553454 -12.496229 3.189235 0.210404 -7.393541 -3.817364 0.646354 -8.705456 3.030807 0.546247 13.092916 0.669421 0.688113 12.752835 6.099981 -4.319959 1.776565 -86.153021 -9.927973 -17.872820 -12.801917 -4.634854 0.431434 18.928767 -3.857644 -0.382982 -0.000000 0.000000 0.000000 -0.000000 -0.000000 -0.000000 -0.000000 -0.000000 -0.000000 -7.305509 5.881105 0.644656 79.804896 8.611307 -4.751304 16.968044 22.677697 -0.203700 -21.661430 -3.942260 -0.130475 0.000000 0.000000 0.000003 0.000000 0.000000 -0.000000 0.000000 -0.000000 0.000000 
16.883183 16.568919 -11.494550 161.637020 -89.907220 -150.604622 2.144456 -3.356290 -8.012629 -7.657713 -15.379123 -31.470652 -11.891570 18.702404 36.191964 -3.288218 1.992373 5.259456 10.394182 -5.885651 -8.635728 1.142670 9.545114 -11.572729 14.689934 -5.713473 -7.837385 6.043678 -11.131123 16.701079 -3.790798 2.613386 -20.114305 -1.911075 -4.091315 -5.885381 -4.079384 -1.659550 21.982901 4.029999 0.499485 -12.448631 3.039920 0.169309 -7.399408 -3.692997 0.652064 -8.695986 2.943227 0.538026 12.989240 0.496932 0.679374 13.062835 6.286997 -4.221179 1.746655 -86.355708 -9.796885 -18.067307 -12.748476 -4.516861 0.280782 18.861525 -3.721460 -0.376314 -0.000000 -0.000000 0.000000 -0.000000 -0.000000 0.000000 -0.000000 -0.000000 0.000000 -7.220642 6.009418 0.672632 79.701912 8.694281 -4.991404 17.006453 22.750350 -0.014709 -21.679342 -3.770460 -0.134701 0.000000 0.000000 0.000003 0.000000 -0.000000 0.000000 -0.000000 0.000000 0.000000 
16.799099 16.563814 -11.518574 161.091737 -89.922959 -149.943470 2.264817 -3.304190 -7.977364 -7.936326 -15.732195 -31.277176 -12.035775 18.227259 33.706913 -3.663306 1.667448 5.387341 11.093933 -6.987562 -8.737418 1.242743 9.747011 -11.673170 14.592472 -5.887600 -7.671088 6.050110 -11.364742 16.900559 -4.186451 2.554716 -20.181067 -1.904808 -3.854116 -5.686823 -3.980458 -1.675564 22.047844 3.997461 0.610031 -12.505732 3.030407 0.288769 -7.551247 -3.782565 0.680203 -8.606667 2.839503 0.577862 12.924585 0.436462 0.643822 13.168846 6.154379 -4.218437 1.821036 -86.512292 -9.677743 -18.320357 -12.665934 -4.390116 0.098217 18.745419 -3.577017 -0.367349 -0.000000 0.000000 0.000000 -0.000000 -0.000000 0.000000 -0.000000 -0.000000 0.000000 -7.285023 6.101315 0.669408 79.545688 8.620226 -5.085836 16.957519 22.871573 0.078572 -21.600273 -3.750619 -0.141050 0.000000 0.000000 0.000003 0.000000 0.000000 0.000000 0.000000 -0.000000 -0.000000 
16.705405 16.548949 -11.552703 -20.475315 -89.862903 31.633896 2.554900 -2.981254 -7.938953 -8.744960 -15.963047 -31.021980 -12.417018 16.574990 31.697670 -3.223177 1.825709 5.406974 10.726553 -5.903680 -9.003587 1.263879 9.782818 -11.668980 14.796647 -5.861087 -7.425622 5.925400 -11.855608 16.961793 -4.242277 2.651401 -20.396737 -1.963939 -3.824978 -5.749520 -3.876994 -1.699371 21.985117 4.005489 0.582894 -12.420987 2.791994 0.284116 -7.420813 -3.549946 0.690099 -8.691199 2.758857 0.560166 12.825254 0.225177 0.671402 13.259727 6.454892 -4.101862 1.801377 -86.703320 -9.648400 -18.451782 -12.610451 -4.277918 0.040652 18.335793 -3.474917 -0.346356 0.000000 0.000000 0.000000 0.000000 -0.000000 0.000000 0.000000 0.000000 0.000000 -7.086060 6.143476 0.683955 79.439878 8.776134 -5.400874 17.035635 22.914352 0.170772 -21.482718 -3.722668 -0.144503 0.000000 0.000000 0.000003 0.000000 -0.000000 -0.000000 -0.000000 0.000000 -0.000000 
16.609009 16.543694 -11.587883 -20.951749 -89.630693 32.181696 2.786253 -2.728100 -7.901296 -9.174865 -16.598492 -30.587931 -12.423630 15.765498 29.152130 -3.681178 1.781236 5.459031 11.833640 -6.584578 -9.826566 1.479637 9.844562 -11.612310 14.843886 -6.160136 -7.325760 5.790698 -11.986440 17.051012 -4.099739 2.745745 -20.512521 -2.412932 -3.435092 -6.089893 -3.819313 -1.683926 21.954602 4.052069 0.617317 -12.460605 3.028350 0.285368 -7.254881 -3.762985 0.689581 -8.848588 2.696161 0.598323 12.791050 0.411854 0.559610 13.352449 6.158973 -3.997723 1.801558 -86.809524 -9.687357 -18.538701 -12.532093 -4.137368 -0.086342 18.259952 -3.428389 -0.342001 -0.000000 0.000000 0.000000 0.000000 0.000000 -0.000000 -0.000000 0.000000 0.000000 -7.238979 6.112115 0.604173 79.259756 8.834256 -5.258946 16.912070 23.047848 0.528000 -21.612030 -3.191316 -0.168304 0.000000 0.000000 0.000003 0.000000 0.000000 -0.000000 0.000000 0.000000 0.000000 
16.513213 16.531982 -11.614129 -22.457879 -89.506813 33.685226 3.064111 -2.440460 -7.829638 -10.017196 -16.822628 -30.154554 -12.162066 14.478891 26.891025 -3.848243 1.743367 5.265237 12.072492 -6.533250 -10.127454 1.334153 9.811465 -11.676677 15.275102 -6.321658 -6.963624 5.645716 -12.011010 17.023194 -4.430755 2.603467 -20.599909 -2.526189 -3.571712 -6.361087 -3.690349 -1.652730 21.915841 4.000836 0.715329 -12.405469 3.121160 0.388234 -7.234129 -3.910085 0.670836 -8.846582 2.700115 0.603290 12.732620 0.286024 0.565230 12.787933 6.038429 -4.111618 1.850603 -86.979528 -9.700846 -18.765503 -12.510312 -3.940943 -0.549462 18.560292 -3.136302 -0.348963 -0.000000 0.000000 0.000000 -0.000000 -0.000000 0.000000 0.000000 -0.000000 0.000000 -7.423173 5.995110 0.591074 79.153520 8.813153 -5.138431 16.823656 23.166365 0.563940 -21.927561 -3.124897 -0.167646 0.000000 0.000000 0.000003 0.000000 0.000000 -0.000000 0.000000 -0.000000 0.000000 
